<svg width="807" height="198" viewBox="0 0 807 198" fill="none" xmlns="http://www.w3.org/2000/svg">
<path d="M98.6533 0C153.138 0 197.308 44.1692 197.308 98.6543C197.307 153.139 153.138 197.309 98.6533 197.309C44.1684 197.308 0.000126565 153.139 0 98.6543C0 44.1692 44.1683 0.000148456 98.6533 0ZM98.3145 26.2236C97.1196 26.2236 95.9243 26.5314 94.8516 27.1465L37.6611 60.165C35.5186 61.4006 34.2043 63.6818 34.2041 66.1475V132.231C34.2043 134.698 35.5186 136.978 37.6611 138.214L94.8711 171.258C97.0096 172.489 99.6464 172.489 101.782 171.258L158.982 138.214C161.114 136.978 162.431 134.697 162.432 132.231V66.1475C162.431 63.6818 161.114 61.4006 158.969 60.165L101.776 27.1465C100.704 26.5316 99.5091 26.2237 98.3145 26.2236Z" fill="#5D5AC0"/>
<path d="M348.449 70.3489H287.443V86.8372H344.051V112.668H287.443V128.607H367.136V128.608H399.012V128.561C399.557 128.591 400.108 128.608 400.66 128.608H416.05C432.136 128.607 445.178 115.565 445.179 99.4788C445.179 83.3917 432.137 70.3506 416.05 70.3499H400.661C400.108 70.3499 399.557 70.3673 399.012 70.3977V70.3489H395.164V112.669H361.089L361.09 42.8694V41.7698H423.744C441.584 41.7701 457.533 49.8666 468.119 62.5842C460.303 72.2287 455.62 84.517 455.62 97.8977V101.058C455.62 114.439 460.304 126.726 468.12 136.37C457.534 149.089 441.585 157.186 423.744 157.187H258.863V41.7698H348.449V70.3489ZM688.104 157.187H598.518V128.608H659.523V112.119H602.915V86.2874H659.523V70.3499H581.48V70.3489H547.953V70.3958C547.408 70.3654 546.858 70.3489 546.306 70.3489H530.916C514.829 70.3493 501.787 83.3908 501.787 99.4778C501.787 115.565 514.829 128.606 530.916 128.607H546.306C546.858 128.607 547.408 128.589 547.953 128.559V128.607H551.801V86.2874H585.876V157.187H523.222C491.351 157.187 465.514 131.349 465.514 99.4778C465.514 67.6067 491.351 41.77 523.222 41.7698H688.104V157.187Z" fill="white"/>
<path d="M747.858 96.3126V138.901C747.858 141.533 747.41 143.913 746.514 146.041C745.618 148.113 744.33 149.877 742.65 151.333C741.026 152.789 739.038 153.937 736.686 154.777C734.39 155.561 731.814 155.953 728.958 155.953C723.414 155.953 719.046 154.553 715.854 151.753C712.718 148.953 710.702 145.229 709.806 140.581L720.138 138.397C720.642 140.861 721.538 142.905 722.826 144.529C724.17 146.097 726.214 146.881 728.958 146.881C731.478 146.881 733.41 146.153 734.754 144.697C736.098 143.185 736.77 140.833 736.77 137.641V105.385H716.946V96.3126H747.858ZM780.586 155.953C775.546 155.953 771.234 155.085 767.65 153.349C764.122 151.613 761.238 149.317 758.998 146.461L765.634 139.573C767.818 142.093 770.17 143.969 772.69 145.201C775.266 146.377 778.01 146.965 780.922 146.965C784.282 146.965 786.858 146.209 788.65 144.697C790.442 143.185 791.338 141.001 791.338 138.145C791.338 135.793 790.666 134.029 789.322 132.853C787.978 131.621 785.71 130.753 782.518 130.249L776.302 129.241C770.87 128.289 767.006 126.329 764.71 123.361C762.414 120.337 761.266 116.781 761.266 112.693C761.266 107.093 763.086 102.809 766.726 99.8406C770.366 96.8166 775.406 95.3046 781.846 95.3046C786.438 95.3046 790.386 96.0326 793.69 97.4886C797.05 98.9446 799.738 100.933 801.754 103.453L795.286 110.341C793.718 108.493 791.842 107.037 789.658 105.973C787.474 104.853 784.898 104.293 781.93 104.293C775.546 104.293 772.354 106.925 772.354 112.189C772.354 114.429 773.026 116.137 774.37 117.313C775.714 118.489 778.01 119.357 781.258 119.917L787.39 121.009C792.486 121.961 796.266 123.837 798.73 126.637C801.194 129.437 802.426 133.021 802.426 137.389C802.426 140.133 801.95 142.653 800.998 144.949C800.046 147.189 798.646 149.149 796.798 150.829C794.95 152.453 792.654 153.713 789.91 154.609C787.222 155.505 784.114 155.953 780.586 155.953Z" fill="white" fill-opacity="0.4"/>
</svg>
