<svg width="807" height="198" viewBox="0 0 807 198" fill="none" xmlns="http://www.w3.org/2000/svg">
<path d="M98.6543 0C153.139 0 197.309 44.1692 197.309 98.6543C197.308 153.139 153.139 197.309 98.6543 197.309C44.1694 197.308 0.000126564 153.139 0 98.6543C0 44.1692 44.1693 0.000148456 98.6543 0ZM98.3154 26.2236C97.1205 26.2236 95.9252 26.5314 94.8525 27.1465L37.6621 60.165C35.5196 61.4006 34.2052 63.6818 34.2051 66.1475V132.231C34.2052 134.698 35.5196 136.978 37.6621 138.214L94.8721 171.258C97.0106 172.489 99.6474 172.489 101.783 171.258L158.983 138.214C161.115 136.978 162.432 134.697 162.433 132.231V66.1475C162.432 63.6818 161.115 61.4006 158.97 60.165L101.777 27.1465C100.705 26.5316 99.5101 26.2237 98.3154 26.2236Z" fill="#5D5AC0"/>
<path d="M348.45 70.3489H287.444V86.8372H344.052V112.668H287.444V128.607H367.137V128.608H399.013V128.561C399.558 128.591 400.109 128.608 400.661 128.608H416.051C432.137 128.607 445.179 115.565 445.18 99.4788C445.18 83.3917 432.138 70.3506 416.051 70.3499H400.662C400.109 70.3499 399.558 70.3673 399.013 70.3977V70.3489H395.165V112.669H361.09L361.091 42.8694V41.7698H423.745C441.585 41.7701 457.534 49.8666 468.12 62.5842C460.304 72.2287 455.621 84.517 455.621 97.8977V101.058C455.621 114.439 460.305 126.726 468.121 136.37C457.535 149.089 441.586 157.186 423.745 157.187H258.864V41.7698H348.45V70.3489ZM688.104 157.187H598.519V128.608H659.524V112.119H602.916V86.2874H659.524V70.3499H581.481V70.3489H547.954V70.3958C547.409 70.3654 546.859 70.3489 546.307 70.3489H530.917C514.83 70.3493 501.788 83.3908 501.788 99.4778C501.788 115.565 514.83 128.606 530.917 128.607H546.307C546.859 128.607 547.409 128.589 547.954 128.559V128.607H551.802V86.2874H585.877V157.187H523.223C491.352 157.187 465.515 131.349 465.515 99.4778C465.515 67.6067 491.352 41.77 523.223 41.7698H688.104V157.187Z" fill="black"/>
<path d="M747.859 96.3126V138.901C747.859 141.533 747.411 143.913 746.515 146.041C745.619 148.113 744.331 149.877 742.651 151.333C741.027 152.789 739.039 153.937 736.687 154.777C734.391 155.561 731.815 155.953 728.959 155.953C723.415 155.953 719.047 154.553 715.855 151.753C712.719 148.953 710.703 145.229 709.807 140.581L720.139 138.397C720.643 140.861 721.539 142.905 722.827 144.529C724.171 146.097 726.215 146.881 728.959 146.881C731.479 146.881 733.411 146.153 734.755 144.697C736.099 143.185 736.771 140.833 736.771 137.641V105.385H716.947V96.3126H747.859ZM780.587 155.953C775.547 155.953 771.235 155.085 767.651 153.349C764.123 151.613 761.239 149.317 758.999 146.461L765.635 139.573C767.819 142.093 770.171 143.969 772.691 145.201C775.267 146.377 778.011 146.965 780.923 146.965C784.283 146.965 786.859 146.209 788.651 144.697C790.443 143.185 791.339 141.001 791.339 138.145C791.339 135.793 790.667 134.029 789.323 132.853C787.979 131.621 785.711 130.753 782.519 130.249L776.303 129.241C770.871 128.289 767.007 126.329 764.711 123.361C762.415 120.337 761.267 116.781 761.267 112.693C761.267 107.093 763.087 102.809 766.727 99.8406C770.367 96.8166 775.407 95.3046 781.847 95.3046C786.439 95.3046 790.387 96.0326 793.691 97.4886C797.051 98.9446 799.739 100.933 801.755 103.453L795.287 110.341C793.719 108.493 791.843 107.037 789.659 105.973C787.475 104.853 784.899 104.293 781.931 104.293C775.547 104.293 772.355 106.925 772.355 112.189C772.355 114.429 773.027 116.137 774.371 117.313C775.715 118.489 778.011 119.357 781.259 119.917L787.391 121.009C792.487 121.961 796.267 123.837 798.731 126.637C801.195 129.437 802.427 133.021 802.427 137.389C802.427 140.133 801.951 142.653 800.999 144.949C800.047 147.189 798.647 149.149 796.799 150.829C794.951 152.453 792.655 153.713 789.911 154.609C787.223 155.505 784.115 155.953 780.587 155.953Z" fill="black" fill-opacity="0.4"/>
</svg>
